HIERARCHY
ROOT root
{
	OFFSET 0.000000 0.000000 0.000000
	CHANNELS 6 Xposition Yposition Zposition Zrotation Yrotation Xrotation
	JOINT lhip
	{
		OFFSET 0.058581 -0.082280 -0.017664
		CHANNELS 3 Zrotation Yrotation Xrotation
		JOINT lknee
		{
			OFFSET 0.043451 -0.386469 0.008037
			CHANNELS 3 Zrotation Yrotation Xrotation
			JOINT lankle
			{
				OFFSET -0.014790 -0.426874 -0.037428
				CHANNELS 3 Zrotation Yrotation Xrotation
				JOINT ltoe
				{
					OFFSET 0.041054 -0.060286 0.122042
					CHANNELS 3 Zrotation Yrotation Xrotation
					End Site
					{
						OFFSET 0.000000 0.000000 0.000000
					}
				}
			}
		}
	}
	JOINT rhip
	{
		OFFSET -0.060310 -0.090513 -0.013543
		CHANNELS 3 Zrotation Yrotation Xrotation
		JOINT rknee
		{
			OFFSET -0.043257 -0.383688 -0.004843
			CHANNELS 3 Zrotation Yrotation Xrotation
			JOINT rankle
			{
				OFFSET 0.019056 -0.420046 -0.034562
				CHANNELS 3 Zrotation Yrotation Xrotation
				JOINT rtoe
				{
					OFFSET -0.034840 -0.062106 0.130323
					CHANNELS 3 Zrotation Yrotation Xrotation
					End Site
					{
						OFFSET 0.000000 0.000000 0.000000
					}
				}
			}
		}
	}
	JOINT lowerback
	{
		OFFSET 0.004439 0.124404 -0.038385
		CHANNELS 3 Zrotation Yrotation Xrotation
		JOINT upperback
		{
			OFFSET 0.004488 0.137956 0.026820
			CHANNELS 3 Zrotation Yrotation Xrotation
			JOINT chest
			{
				OFFSET -0.002265 0.056032 0.002855
				CHANNELS 3 Zrotation Yrotation Xrotation
				JOINT lowerneck
				{
					OFFSET -0.013390 0.211636 -0.033468
					CHANNELS 3 Zrotation Yrotation Xrotation
					JOINT upperneck
					{
						OFFSET 0.010113 0.088937 0.050410
						CHANNELS 3 Zrotation Yrotation Xrotation
						End Site
						{
							OFFSET 0.000000 0.000000 0.000000
						}
					}
				}
				JOINT lclavicle
				{
					OFFSET 0.071702 0.114000 -0.018898
					CHANNELS 3 Zrotation Yrotation Xrotation
					JOINT lshoulder
					{
						OFFSET 0.122921 0.045205 -0.019046
						CHANNELS 3 Zrotation Yrotation Xrotation
						JOINT lelbow
						{
							OFFSET 0.255332 -0.015649 -0.022946
							CHANNELS 3 Zrotation Yrotation Xrotation
							JOINT lwrist
							{
								OFFSET 0.265709 0.012698 -0.007375
								CHANNELS 3 Zrotation Yrotation Xrotation
								End Site
								{
									OFFSET 0.000000 0.000000 0.000000
								}
							}
						}
					}
				}
				JOINT rclavicle
				{
					OFFSET -0.082954 0.112472 -0.023707
					CHANNELS 3 Zrotation Yrotation Xrotation
					JOINT rshoulder
					{
						OFFSET -0.113228 0.046853 -0.008472
						CHANNELS 3 Zrotation Yrotation Xrotation
						JOINT relbow
						{
							OFFSET -0.260127 -0.014369 -0.031269
							CHANNELS 3 Zrotation Yrotation Xrotation
							JOINT rwrist
							{
								OFFSET -0.269108 0.006794 -0.006027
								CHANNELS 3 Zrotation Yrotation Xrotation
								End Site
								{
									OFFSET 0.000000 0.000000 0.000000
								}
							}
						}
					}
				}
			}
		}
	}
}
MOTION
Frames: 14
Frame Time: 0.033333
-0.322358 0.259712 0.988626 92.020699 0.676405 86.901584 1.351182 -1.469003 1.311430 -0.398896 -6.419151 5.163964 2.710898 9.740171 -12.923252 0.000000 -0.000000 0.000000 -1.728296 -1.335413 4.534454 1.856550 -2.429477 -2.538769 0.728065 -6.320415 -8.330720 0.000000 -0.000000 0.000000 0.559209 1.539862 1.510956 1.498899 -4.318422 6.508536 1.032001 -1.252957 -5.385350 -5.349975 3.065044 9.704956 2.660484 -0.648785 2.130166 -20.798444 -4.980761 5.665452 -59.983951 -6.800315 12.532692 10.768952 -21.570960 0.313889 -15.636107 -18.449564 1.967001 20.422904 11.286017 5.100096 55.943466 6.630468 12.347536 -10.073003 15.013351 -0.177499 16.013606 14.674416 -2.526547 
-0.322260 0.259590 0.988564 92.045089 0.661762 86.897204 1.341617 -1.456513 1.315903 -0.396992 -6.455588 5.172128 2.681596 9.754683 -12.932808 0.000000 -0.000000 0.000000 -1.730600 -1.364694 4.523487 1.842870 -2.442448 -2.475201 0.831319 -6.325567 -8.372242 0.000000 -0.000000 0.000000 0.547814 1.551506 1.543058 1.478338 -4.288591 6.361537 1.057635 -1.255538 -5.234184 -5.367054 3.036929 9.714668 2.654130 -0.644689 2.026481 -20.803226 -5.006146 5.686187 -59.967914 -6.791660 12.527940 10.762744 -21.552951 0.391535 -15.532942 -18.451711 1.870121 20.444306 11.293874 5.086265 55.953106 6.576660 12.347980 -10.067795 14.981745 -0.122987 15.912939 14.687306 -2.573427 
-0.322295 0.259489 0.988472 92.102527 0.653545 86.881127 1.328332 -1.453373 1.300372 -0.381351 -6.507513 5.208395 2.649643 9.754293 -12.940721 0.000000 -0.000000 0.000000 -1.727464 -1.380844 4.479396 1.815899 -2.484938 -2.350298 0.906449 -6.321396 -8.434528 0.000000 -0.000000 0.000000 0.566872 1.558787 1.646943 1.443293 -4.266953 6.189219 1.072519 -1.253064 -5.076812 -5.412262 2.958417 9.833471 2.656376 -0.648777 1.647230 -20.818230 -5.038036 5.646174 -59.930275 -6.781239 12.534536 10.812580 -21.467770 0.340240 -15.430843 -18.442384 1.769022 20.431585 11.315525 5.014077 56.000899 6.502545 12.353566 -10.084760 14.911300 -0.107122 15.843047 14.705206 -2.626035 
-0.322147 0.259261 0.988349 92.162404 0.646232 86.872855 1.339107 -1.459153 1.310758 -0.384280 -6.551903 5.202101 2.629472 9.740347 -12.934093 0.000000 -0.000000 0.000000 -1.724137 -1.390078 4.483193 1.812225 -2.520186 -2.311504 0.929774 -6.329157 -8.457082 0.000000 -0.000000 0.000000 0.557364 1.561151 1.685344 1.421093 -4.254375 6.112475 1.084101 -1.260747 -4.959110 -5.398875 2.948274 9.819995 2.691325 -0.641423 1.379852 -20.754450 -5.025796 5.590500 -59.916318 -6.762617 12.512323 10.841267 -21.408311 0.344374 -15.407673 -18.456159 1.723469 20.384831 11.298359 4.957761 56.043061 6.466683 12.355842 -10.080276 14.961280 -0.056697 15.808653 14.731868 -2.670771 
-0.322052 0.259106 0.988290 92.187209 0.644015 86.881776 1.344507 -1.470886 1.305415 -0.381639 -6.567727 5.196855 2.618407 9.736844 -12.928823 0.000000 -0.000000 0.000000 -1.716106 -1.392115 4.482168 1.808662 -2.534146 -2.311846 0.950583 -6.346857 -8.448449 0.000000 -0.000000 0.000000 0.536743 1.565371 1.697429 1.418572 -4.250563 6.072041 1.102331 -1.257804 -4.901465 -5.395326 2.943590 9.778404 2.724361 -0.652498 1.281415 -20.683055 -5.040967 5.585115 -59.937618 -6.746558 12.507412 10.846023 -21.409539 0.362071 -15.415314 -18.467503 1.689379 20.334935 11.306717 4.938382 56.063413 6.441185 12.343676 -10.080248 15.001993 -0.044165 15.797930 14.738531 -2.738816 
-0.321937 0.258935 0.988253 92.224087 0.643310 86.910725 1.346602 -1.487731 1.275582 -0.367666 -6.577980 5.196777 2.609473 9.728921 -12.925136 0.000000 -0.000000 0.000000 -1.703605 -1.399770 4.467691 1.809847 -2.543896 -2.330304 0.953915 -6.373314 -8.441610 0.000000 -0.000000 0.000000 0.515194 1.564244 1.734562 1.419026 -4.251479 6.004320 1.122657 -1.254276 -4.866812 -5.381889 2.935744 9.701659 2.764044 -0.660761 1.185773 -20.617032 -5.050390 5.582077 -59.952933 -6.713363 12.498133 10.855623 -21.397636 0.364292 -15.433823 -18.469357 1.655858 20.286505 11.327635 4.916939 56.077018 6.412896 12.337913 -10.098064 14.985773 -0.026395 15.809635 14.727716 -2.777480 
-0.321842 0.258772 0.988248 92.251800 0.648031 86.960385 1.362563 -1.498294 1.221994 -0.362643 -6.586837 5.197741 2.599526 9.720876 -12.921380 0.000000 -0.000000 0.000000 -1.685098 -1.408230 4.438304 1.812557 -2.544432 -2.360875 0.951624 -6.390201 -8.433736 0.000000 -0.000000 0.000000 0.507070 1.571814 1.748879 1.419986 -4.246257 5.969764 1.129742 -1.248603 -4.862732 -5.359733 2.936648 9.606843 2.800146 -0.671056 1.082046 -20.588424 -5.057047 5.561663 -59.943669 -6.690552 12.492132 10.864066 -21.340670 0.358919 -15.455746 -18.459269 1.661663 20.262226 11.340296 4.898607 56.073774 6.409758 12.330421 -10.115150 14.930827 -0.018018 15.820792 14.708243 -2.771151 
-0.321733 0.258611 0.988254 92.248585 0.650745 86.995318 1.379356 -1.490185 1.211010 -0.357371 -6.591938 5.161160 2.586234 9.717768 -12.911360 0.000000 -0.000000 0.000000 -1.664883 -1.408742 4.435858 1.809037 -2.549767 -2.417899 0.945309 -6.392415 -8.417242 0.000000 -0.000000 0.000000 0.500943 1.587754 1.770993 1.417888 -4.232914 5.967783 1.134680 -1.234734 -4.868207 -5.345814 2.944640 9.482721 2.830739 -0.671386 0.947942 -20.588832 -5.087583 5.545964 -59.920468 -6.671864 12.473008 10.879261 -21.289541 0.325797 -15.475038 -18.450490 1.670562 20.259855 11.371879 4.884795 56.045303 6.407070 12.305826 -10.136084 14.907225 -0.045110 15.826604 14.700752 -2.773842 
-0.321598 0.258428 0.988257 92.246520 0.653983 87.043703 1.391363 -1.484892 1.187859 -0.337089 -6.593849 5.119929 2.588889 9.715544 -12.896828 0.000000 -0.000000 0.000000 -1.641422 -1.408711 4.409483 1.802252 -2.551233 -2.454784 0.938497 -6.400985 -8.402868 0.000000 -0.000000 0.000000 0.491865 1.598308 1.791345 1.413810 -4.224919 5.956505 1.135532 -1.218796 -4.889390 -5.330989 2.944274 9.358471 2.863509 -0.666871 0.839272 -20.579033 -5.114796 5.523717 -59.923046 -6.651238 12.472796 10.894416 -21.234897 0.290188 -15.477670 -18.443289 1.678634 20.254015 11.402124 4.875557 56.039994 6.404244 12.294657 -10.150257 14.894557 -0.059610 15.815479 14.702408 -2.766365 
-0.321299 0.258198 0.988251 92.253446 0.662103 87.109861 1.412032 -1.491785 1.150671 -0.319976 -6.596684 5.093465 2.578962 9.720886 -12.898821 0.000000 -0.000000 0.000000 -1.616529 -1.406165 4.388840 1.811383 -2.546420 -2.513671 0.927919 -6.414680 -8.396167 0.000000 -0.000000 0.000000 0.483768 1.601133 1.771691 1.405898 -4.224444 5.948605 1.128118 -1.203982 -4.903255 -5.296599 2.940716 9.211166 2.897889 -0.659905 0.772240 -20.557490 -5.120645 5.496169 -59.957190 -6.649037 12.484195 10.900661 -21.192955 0.297820 -15.488306 -18.437250 1.682105 20.232984 11.419764 4.856710 56.076414 6.425685 12.295696 -10.162961 14.878174 -0.076493 15.809987 14.705912 -2.807831 
-0.320997 0.258005 0.988225 92.246430 0.668825 87.161910 1.435830 -1.491991 1.126279 -0.318719 -6.602213 5.073170 2.577109 9.724988 -12.906165 0.000000 -0.000000 0.000000 -1.594176 -1.407220 4.360882 1.813117 -2.534008 -2.528170 0.915558 -6.420952 -8.410339 0.000000 -0.000000 0.000000 0.472673 1.607992 1.737546 1.407109 -4.217046 5.957424 1.119993 -1.202488 -4.920891 -5.249161 2.932331 9.084113 2.919245 -0.663538 0.767004 -20.563648 -5.102777 5.470075 -59.988275 -6.652123 12.492195 10.919657 -21.198918 0.297770 -15.483520 -18.423830 1.672502 20.239698 11.403890 4.839839 56.096636 6.455507 12.294102 -10.177704 14.898313 -0.103747 15.803371 14.705549 -2.852886 
-0.320586 0.257794 0.988181 92.235298 0.672193 87.196316 1.457797 -1.484006 1.142162 -0.313563 -6.601324 5.027693 2.577543 9.719849 -12.914470 0.000000 -0.000000 0.000000 -1.573642 -1.410202 4.355440 1.814939 -2.533336 -2.535905 0.893703 -6.413804 -8.431326 0.000000 -0.000000 0.000000 0.442584 1.619588 1.671039 1.421294 -4.211200 6.051854 1.118562 -1.208292 -4.957553 -5.189264 2.927412 8.945968 2.945096 -0.699823 0.727249 -20.588163 -5.092526 5.446538 -60.021536 -6.676867 12.464342 10.943889 -21.215681 0.221437 -15.459925 -18.417384 1.653864 20.278868 11.405216 4.837618 56.091524 6.490067 12.275353 -10.208067 14.933579 -0.174725 15.776330 14.716158 -2.856050 
-0.320152 0.257579 0.988127 92.238343 0.678060 87.213505 1.480631 -1.480430 1.171849 -0.307191 -6.601315 4.996231 2.571266 9.714993 -12.933339 0.000000 -0.000000 0.000000 -1.551140 -1.411497 4.364857 1.820190 -2.536088 -2.527481 0.861116 -6.411626 -8.471679 0.000000 -0.000000 0.000000 0.404656 1.627479 1.611972 1.445543 -4.214398 6.168822 1.125421 -1.215089 -4.997140 -5.124108 2.923243 8.794119 2.971067 -0.753379 0.689861 -20.631633 -5.098859 5.415456 -60.045104 -6.721465 12.430131 10.947191 -21.213529 0.119297 -15.441168 -18.418642 1.624298 20.349973 11.417133 4.837844 56.061387 6.524016 12.251514 -10.248471 14.947807 -0.268036 15.759971 14.725332 -2.840192 
-0.319667 0.257342 0.988062 92.254284 0.685687 87.230705 1.507350 -1.479746 1.190168 -0.300947 -6.600123 4.989293 2.574917 9.697835 -12.964632 0.000000 -0.000000 0.000000 -1.523579 -1.422274 4.375024 1.821893 -2.539547 -2.511482 0.833782 -6.414456 -8.520326 0.000000 -0.000000 0.000000 0.373411 1.633274 1.561790 1.467451 -4.225803 6.263683 1.131065 -1.226467 -5.033211 -5.055874 2.913115 8.641802 3.007225 -0.804662 0.654541 -20.676203 -5.132662 5.401681 -60.070785 -6.762558 12.394924 10.943143 -21.182278 -0.037467 -15.399182 -18.404538 1.525098 20.419114 11.431676 4.846409 56.055614 6.539977 12.235600 -10.295112 14.943994 -0.363389 15.756102 14.713228 -2.848208 
